<svg version="1.1" id="Layer_1" xmlns="http://www.w3.org/2000/svg" xmlns:xlink="http://www.w3.org/1999/xlink" x="0px" y="0px"
	 width="100%" viewBox="0 0 1024 1024" enable-background="new 0 0 1024 1024" xml:space="preserve">
<path fill="#000000" opacity="1.000000" stroke="none" 
	d="
M763.793640,513.631104 
	C758.067566,532.399231 749.760376,549.287659 736.576355,563.547363 
	C732.093140,568.396362 732.943176,574.819031 732.435669,580.649963 
	C731.018921,596.928528 731.129395,613.245544 731.896729,629.575806 
	C732.208435,636.211548 731.596497,642.889404 731.437256,649.548889 
	C731.294373,655.524414 729.173157,658.390686 724.940247,658.238708 
	C720.624207,658.083862 716.323425,653.364990 716.364624,648.825684 
	C716.468933,637.330872 716.613281,625.836243 716.668884,614.341187 
	C716.721069,603.554565 716.680054,592.767517 716.680054,580.712402 
	C693.529480,596.195007 670.300659,594.496277 646.197876,581.172852 
	C646.616089,589.112976 646.744263,595.977417 646.409851,602.836670 
	C646.028870,610.651062 646.079407,618.505493 646.365417,626.327026 
	C646.576355,632.094421 645.236206,637.564392 644.174011,643.106018 
	C643.597717,646.112610 641.951965,648.513977 638.648071,648.692444 
	C635.337708,648.871277 633.226318,646.605530 632.583191,643.719116 
	C631.648193,639.522766 631.008850,635.184204 630.913757,630.891418 
	C630.618835,617.580811 630.609375,604.263306 630.557800,590.948181 
	C630.541626,586.767517 627.510803,584.263062 623.197266,585.422852 
	C619.025085,586.544617 615.014587,588.275024 610.834717,589.358765 
	C596.132812,593.170715 581.837341,593.285828 568.727417,584.094177 
	C568.357361,583.834778 567.792114,583.853638 567.048950,583.679871 
	C565.203796,586.081726 565.395569,588.920471 565.395203,591.690674 
	C565.393005,610.355164 565.413574,629.019714 565.418823,647.684204 
	C565.420715,654.279297 562.355774,659.048340 558.154968,659.026794 
	C554.321838,659.007202 550.637451,653.520142 550.648193,647.764465 
	C550.688110,626.438599 550.861450,605.113342 549.748840,583.801025 
	C549.254517,574.333618 547.599182,565.541138 541.061340,557.920288 
	C536.895996,553.065002 534.040222,547.086304 530.775940,541.895447 
	C529.080322,541.536133 528.497803,542.405884 527.908997,543.204224 
	C522.373413,550.709534 516.821533,558.203064 511.330872,565.741089 
	C508.174774,570.073975 508.561462,575.290161 508.435242,580.165405 
	C508.055725,594.822693 508.185883,609.492371 508.005524,624.155884 
	C507.894928,633.147827 507.495392,642.136353 507.396515,651.128235 
	C507.355865,654.822632 505.391052,656.930603 502.439789,658.558716 
	C499.739532,660.048279 497.436371,658.841125 495.597931,657.157532 
	C493.267517,655.023438 491.269775,654.875183 488.087463,655.573547 
	C481.591492,656.999023 474.816559,656.636902 468.184875,655.930969 
	C464.627472,655.552307 462.855103,652.597229 461.770813,649.559265 
	C459.869263,644.231384 457.118134,639.686707 452.154755,636.650391 
	C451.068207,635.985718 450.099152,634.859253 449.492004,633.723083 
	C444.361633,624.123596 443.076752,613.294189 438.834381,602.313660 
	C444.015961,604.235046 448.327667,603.547058 452.574615,603.888428 
	C460.764526,604.546692 465.470428,610.427307 468.817108,616.604919 
	C472.994293,624.315735 478.251984,631.547607 480.869110,640.077637 
	C481.599823,642.459167 482.456635,644.809143 483.044952,647.224854 
	C483.495972,649.077087 483.864777,650.971802 486.021149,651.379883 
	C488.250488,651.801819 489.192902,649.819275 490.273376,648.440857 
	C491.556580,646.803772 491.678040,644.733521 491.683197,642.715393 
	C491.729279,624.718140 491.755615,606.720825 491.807495,588.723572 
	C491.818237,584.992859 490.163086,583.041382 486.545837,584.779968 
	C464.198242,595.520752 442.413452,593.643250 420.949585,582.257080 
	C420.559479,582.050232 420.001007,582.160706 419.597260,582.129028 
	C418.156067,583.113831 418.316040,584.522705 418.457306,585.817566 
	C420.490173,604.455688 418.679260,623.079529 418.145233,641.700439 
	C418.046265,645.151733 417.824951,650.042908 412.899872,649.921631 
	C409.066345,649.827209 406.761108,646.203430 405.997833,642.431030 
	C403.082886,628.024963 402.666351,613.416260 402.708160,598.774170 
	C402.718689,595.090149 402.750885,591.453796 404.048401,587.935303 
	C404.558533,586.551880 405.313507,584.945374 403.875854,583.766174 
	C402.374725,582.534912 400.670135,583.191589 399.199524,584.032654 
	C393.345459,587.380920 387.110352,589.542175 380.425751,590.506470 
	C366.163666,592.563721 352.528137,591.748413 340.666046,582.260925 
	C340.309509,581.975769 339.741364,581.955139 339.229401,581.798096 
	C337.303833,583.378967 338.100616,585.519043 338.103790,587.393250 
	C338.137329,607.224182 338.264282,627.054810 338.314636,646.885742 
	C338.332611,653.968994 335.696991,658.103638 331.219055,658.308533 
	C326.266083,658.535217 322.852295,654.085510 322.712616,646.926697 
	C322.342133,627.938171 322.110626,608.946655 321.691132,589.959351 
	C321.536774,582.972412 321.067566,575.989990 320.628632,569.012634 
	C320.415314,565.621704 319.082642,562.623108 317.144653,559.795044 
	C300.508575,535.519165 291.706238,508.376007 287.657257,479.449066 
	C284.163239,454.486847 286.212463,429.619110 288.500427,404.742737 
	C289.923309,389.272156 289.517700,373.842896 288.071777,358.389221 
	C286.754150,344.306244 285.895142,330.180969 284.723114,316.083588 
	C283.217682,297.975800 282.949493,279.848755 283.668396,261.703064 
	C284.195190,248.406204 284.336945,235.063217 286.754242,221.927780 
	C288.268005,213.702301 291.631500,206.325089 298.547089,201.114319 
	C312.600464,190.525330 330.864441,195.809509 338.029083,212.636429 
	C341.179077,220.034622 342.840302,227.884705 343.244141,235.901978 
	C344.056488,252.029144 344.401398,268.182251 345.383820,284.297546 
	C345.969910,293.910980 347.353638,303.478577 348.497131,313.052612 
	C348.687317,314.644714 349.484283,316.164307 350.164551,318.209564 
	C354.100067,315.640503 357.520599,313.111847 361.204559,311.054932 
	C375.680725,302.972260 389.887024,303.317200 403.290253,313.374115 
	C406.808380,316.013885 409.033081,315.118011 411.970276,312.792694 
	C426.891785,300.979523 442.617706,299.303101 459.094299,309.536133 
	C462.402649,311.590820 463.691376,310.142090 463.939545,306.890594 
	C464.547333,298.927002 465.111877,290.959869 465.643433,282.990784 
	C467.517365,254.897995 467.476562,226.757690 467.809357,198.624039 
	C467.901703,190.817001 468.444214,182.994812 470.598358,175.395294 
	C474.070801,163.144791 485.308411,153.225815 497.743042,153.165054 
	C511.970032,153.095505 521.549194,159.085220 527.076233,172.310181 
	C532.409851,185.072357 532.759888,198.664841 532.929688,212.077209 
	C533.353638,245.559341 534.873657,279.027771 534.309204,312.523804 
	C534.198059,319.119781 535.300781,319.688599 541.222107,316.640320 
	C550.531006,311.848145 560.358398,309.022858 570.866577,308.713074 
	C578.785278,308.479614 586.133789,310.377106 592.455688,315.181335 
	C595.411133,317.427338 597.606140,317.144257 600.386169,315.033234 
	C607.698364,309.480774 615.160339,304.348999 624.744019,303.138824 
	C634.736755,301.876984 643.975037,303.277435 652.484436,308.776093 
	C657.887146,312.267303 659.391907,311.647736 659.512390,305.385895 
	C659.727112,294.229126 660.243225,283.081970 660.545227,271.935150 
	C661.280334,244.794342 661.333435,217.635376 661.712830,190.484467 
	C661.865662,179.541870 665.332031,169.734482 673.213135,162.050064 
	C689.225342,146.437500 714.800415,152.692444 722.316467,173.877640 
	C727.004822,187.092819 727.735352,200.942932 728.151306,214.729584 
	C729.376892,255.353958 730.979614,295.975983 730.364624,336.636597 
	C730.336914,338.467072 729.382324,341.047119 731.946045,341.866302 
	C734.069946,342.544983 734.986267,340.261261 736.192139,339.002899 
	C749.054138,325.580750 764.096985,315.839447 782.546082,312.210114 
	C791.508789,310.446991 799.961670,311.961548 807.813171,317.191101 
	C817.489258,323.635925 823.774902,340.330841 811.532227,352.265411 
	C805.329834,358.311829 799.436646,364.641907 793.546021,370.997192 
	C783.837891,381.471100 779.628357,394.253204 776.298279,407.605499 
	C773.161743,420.182129 772.872559,432.978577 773.240173,445.809204 
	C773.899536,468.823608 770.600830,491.266083 763.793640,513.631104 
M497.997925,180.994873 
	C497.997925,180.994873 498.023102,181.012894 498.209290,180.342911 
	C500.404083,175.828461 505.216797,176.033752 509.055450,174.450745 
	C505.335510,169.553391 500.247955,167.845840 494.551758,169.517838 
	C488.852234,171.190796 483.721436,178.182159 483.359589,184.770401 
	C481.413483,220.202240 483.253021,255.738159 480.357239,291.148529 
	C479.015198,307.559052 478.041168,323.999451 476.850708,340.422699 
	C476.673767,342.863800 475.395508,345.697083 478.035706,347.294189 
	C480.583313,348.835297 483.189758,347.025818 485.635986,346.132965 
	C486.489899,345.821320 487.145325,344.870880 487.802246,344.132782 
	C489.562347,342.155334 491.476624,342.244415 493.627838,343.459045 
	C496.223938,344.924805 498.885956,346.273560 501.515106,347.681061 
	C503.225006,348.596497 505.224365,349.307373 506.591553,347.656128 
	C512.216431,340.862518 519.650391,335.088531 518.734741,324.657867 
	C518.226440,318.868073 518.627380,312.999298 518.598694,307.166229 
	C518.562988,299.922760 515.745422,297.531708 508.564240,298.723450 
	C504.116638,299.461578 499.663574,300.132202 495.192505,299.106689 
	C490.877777,298.116974 489.491577,295.165802 489.602844,290.925293 
	C489.707764,286.927185 491.185822,284.973389 495.373932,284.371002 
	C501.040009,283.556091 506.692169,284.126923 512.336853,283.739807 
	C515.578796,283.517487 517.829407,282.473541 517.785950,278.733826 
	C517.652466,267.236969 517.695557,255.735596 517.371216,244.244415 
	C517.220825,238.916916 515.162903,237.551025 509.814453,238.836349 
	C505.513367,239.869980 501.254730,239.762421 496.930756,239.357864 
	C493.031006,238.992996 490.745056,237.169708 490.751862,233.027191 
	C490.758789,228.812286 492.237030,225.906723 496.979248,225.675735 
	C502.133301,225.424667 507.280457,224.978241 512.436523,224.844345 
	C515.389404,224.767670 516.684937,223.525162 516.670044,220.615921 
	C516.610413,208.945572 516.075012,197.289078 514.206482,185.772720 
	C513.217896,179.680069 509.862091,177.555618 503.935913,178.535690 
	C501.871613,178.877090 499.958618,180.133286 497.997925,180.994873 
M585.274841,570.502869 
	C585.738403,569.564697 587.351379,569.261353 586.778687,567.627380 
	C584.437988,566.747559 582.129150,565.244446 579.460083,566.712341 
	C578.681458,567.140503 578.405090,568.054565 578.904053,568.835205 
	C580.360962,571.114685 582.732910,570.967407 585.448425,571.540771 
	C586.789185,572.935730 588.487610,573.449280 590.359192,573.705872 
	C603.195068,575.465881 614.394348,571.895874 623.909058,563.213562 
	C635.503174,552.633789 637.193970,552.518005 649.760437,561.871094 
	C658.820251,568.614319 668.502014,574.494446 680.125732,574.545837 
	C700.504944,574.635925 717.040466,565.748230 728.907104,549.604187 
	C746.148804,526.147461 753.706787,499.063507 755.726807,470.280365 
	C757.136292,450.197449 755.283813,429.916077 759.009216,410.004852 
	C759.863403,405.439819 758.275452,403.496338 754.819580,401.825623 
	C750.925049,399.942810 747.021606,398.078186 743.135498,396.178284 
	C734.052185,391.737488 735.770813,385.345337 741.374573,378.800812 
	C744.365356,375.308014 746.813232,375.861786 749.581299,379.618774 
	C755.749939,387.991364 764.236450,387.208618 768.817993,378.093719 
	C773.832092,368.118103 779.292847,358.386841 786.769653,349.951080 
	C788.963440,347.475891 791.039124,344.857483 790.964294,341.312134 
	C787.472900,337.980042 783.161987,342.799774 779.248169,339.879669 
	C783.723999,334.992981 790.877625,335.339844 795.298157,330.623199 
	C792.113770,327.467712 788.453735,326.685181 784.621277,327.725769 
	C758.658081,334.775391 739.164307,349.550079 729.707764,375.431610 
	C725.370483,387.302307 723.391541,399.889526 720.338806,412.150970 
	C717.447327,423.764526 711.983643,433.369659 700.451538,438.684814 
	C692.417114,442.387878 685.392212,447.791016 678.235718,452.990143 
	C661.445068,465.188354 649.944763,480.742065 644.906494,501.141754 
	C642.063904,512.651184 641.762939,524.180237 642.396973,535.828308 
	C642.623291,539.985107 641.509521,542.537048 637.127441,543.268982 
	C632.782776,543.994751 630.044861,542.376038 628.741943,538.206909 
	C626.825134,532.073364 626.422058,525.825806 627.132202,519.454773 
	C627.813599,513.341736 628.389893,507.215942 628.921936,501.087952 
	C629.086548,499.191620 628.745178,497.313721 626.610107,496.586456 
	C624.583496,495.896210 622.561096,496.748413 621.907410,498.441315 
	C620.104980,503.109589 617.101746,502.100250 613.845154,500.662018 
	C605.310486,496.892731 596.622742,493.536011 587.726135,490.710846 
	C586.117981,490.200165 583.722900,490.621735 583.389099,488.113251 
	C583.082642,485.809814 584.834595,484.512817 586.325195,483.200317 
	C588.949951,480.889191 592.507141,480.870422 595.555664,479.580383 
	C597.808105,478.627197 599.143494,477.236908 598.848633,474.653961 
	C598.567932,472.196259 596.884277,471.315582 594.732666,471.063110 
	C591.602661,470.695770 588.521729,470.065369 585.309326,470.237061 
	C576.334900,470.716583 568.714600,467.523010 562.288696,461.297913 
	C561.156738,460.201324 560.320984,458.494904 558.301208,458.809143 
	C556.502747,461.514038 556.469666,461.511963 556.364441,463.199707 
	C555.338867,479.654022 551.244873,495.645020 544.697266,510.436157 
	C539.796204,521.507568 542.122253,529.845154 547.729004,538.784485 
	C549.498596,541.605957 551.283813,544.423828 553.202515,547.144226 
	C557.004578,552.535156 557.747925,552.506409 562.213684,547.599426 
	C562.887268,546.859253 563.411316,545.521179 564.687805,545.759888 
	C573.031372,559.701233 586.140747,565.584412 601.372925,568.656921 
	C595.457031,567.547241 590.152405,568.966064 585.274841,570.502869 
M507.906372,546.419250 
	C525.408630,523.776672 533.604553,497.380157 538.649841,469.761047 
	C542.445740,448.981720 539.455627,427.826630 541.854797,406.959076 
	C542.241089,403.598724 540.463196,402.069183 537.412659,401.511047 
	C531.950378,400.511627 527.003113,398.148834 522.009094,395.832550 
	C513.726624,391.990997 514.510620,386.224182 519.111023,379.470825 
	C520.721863,377.106110 524.882690,375.328003 526.283997,377.507385 
	C529.322937,382.233612 534.145630,382.773621 538.369507,384.666412 
	C543.809998,387.104340 545.254395,386.309479 547.326294,380.794556 
	C552.457031,367.137878 558.979126,354.238464 568.504639,343.082825 
	C571.045593,340.107056 573.833862,337.600952 570.671387,333.781433 
	C572.879822,330.755615 576.718689,331.320862 579.279541,328.959351 
	C572.325623,323.279877 565.097046,324.943542 558.176453,327.310364 
	C528.989075,337.292480 512.687988,358.397919 506.298218,388.004608 
	C503.915710,399.043640 502.393005,410.266235 499.233002,421.138458 
	C497.082825,428.536316 493.168488,434.367554 485.626282,437.308960 
	C482.059631,438.699890 478.817993,440.785522 475.756592,443.139771 
	C473.286957,445.038910 471.656219,447.180817 471.073303,450.440887 
	C469.963196,456.649292 468.469757,462.799622 466.895020,468.912079 
	C464.240906,479.214325 454.284485,482.910645 447.684204,489.639740 
	C447.065125,490.270905 445.447205,489.928741 444.292084,490.026703 
	C438.571228,490.511749 433.470612,488.792511 429.177277,485.350037 
	C428.323273,485.863037 427.817871,486.039703 427.494354,486.386169 
	C426.700745,487.236084 425.967743,488.146088 425.250977,489.063690 
	C415.006134,502.179321 414.195129,517.524963 415.088684,533.166748 
	C415.457397,539.621155 413.884552,542.467224 408.314972,543.260986 
	C403.216919,543.987549 400.751312,541.729309 399.657104,535.405640 
	C397.886322,525.172241 399.035095,515.067627 401.954132,505.291321 
	C404.230957,497.665802 407.598358,490.363342 410.540619,482.940857 
	C411.345856,480.909424 411.542603,479.051147 409.782990,477.451965 
	C408.255554,476.063782 406.431946,475.768066 404.705750,476.846405 
	C397.458557,481.373535 389.496002,483.240753 381.070648,484.042328 
	C376.361084,484.490387 375.394684,487.618774 378.420746,491.402008 
	C380.526367,494.034515 382.920074,496.436584 385.205200,498.963867 
	C383.782196,500.067871 382.875000,499.356445 382.012054,498.990082 
	C357.800476,488.710144 344.384674,470.603394 342.870331,444.204559 
	C342.609406,439.655792 341.211853,438.209137 336.693359,438.192322 
	C326.877899,438.155762 317.031250,438.805206 307.240692,437.460693 
	C303.691772,436.973297 302.248688,438.425262 302.155487,442.209015 
	C301.760956,458.233673 302.529083,474.214386 305.469055,489.932556 
	C309.415741,511.033142 316.260895,531.151978 329.033630,548.792114 
	C330.020355,550.154846 330.731232,552.100708 332.798798,552.104858 
	C335.587585,545.989441 326.413605,542.740540 328.689087,536.255554 
	C329.852356,536.779968 330.404297,536.877258 330.725922,537.202393 
	C331.658875,538.145630 332.514557,539.167358 333.373810,540.180969 
	C344.073578,552.802856 355.680237,563.804443 372.879456,567.283020 
	C384.152679,569.563110 394.312469,569.847351 402.586700,560.296570 
	C404.082397,558.570129 406.184753,557.335938 408.106506,556.019775 
	C410.848358,554.142029 413.818817,553.975952 416.505890,555.947693 
	C421.566162,559.660767 426.565643,563.404419 431.799805,566.913391 
	C442.819275,574.300903 454.487122,576.151123 466.862640,573.956299 
	C484.130829,570.893677 497.198639,560.892883 507.906372,546.419250 
M676.312134,226.500702 
	C676.409363,243.161423 676.658691,259.850067 675.114929,276.442352 
	C674.001831,288.404968 674.925659,300.407196 673.477966,312.356873 
	C672.460144,320.757965 671.050598,329.180328 671.404541,337.699280 
	C671.670227,344.095001 674.149414,346.419922 679.831055,344.462036 
	C685.561890,342.487213 691.014709,343.763062 696.569031,344.166473 
	C700.536316,344.454651 704.458740,345.348572 708.403931,345.954651 
	C712.318237,346.555939 714.484497,345.009460 714.595947,340.908875 
	C714.926208,328.753693 715.359192,316.600433 715.568298,304.443268 
	C715.652100,299.570312 713.877075,298.378693 709.086060,298.929565 
	C702.286377,299.711395 695.427795,299.818604 688.652039,298.940338 
	C683.717896,298.300812 682.500427,295.763245 682.621216,289.798218 
	C682.717468,285.044342 685.638123,283.845795 689.486572,283.763550 
	C695.649414,283.631805 701.817078,283.741699 707.982117,283.687286 
	C713.912537,283.634979 714.919739,282.677399 714.797302,276.577026 
	C714.576843,265.587097 714.156799,254.601303 713.896240,243.611984 
	C713.799316,239.523544 712.154602,237.918060 707.904846,238.750549 
	C702.656494,239.778671 697.280151,239.779282 691.973328,239.209946 
	C686.395142,238.611481 684.397339,235.759720 684.675293,229.934998 
	C684.923462,224.733078 688.374207,223.726196 692.555054,223.672089 
	C697.886475,223.603088 703.221436,223.575333 708.551453,223.690262 
	C713.065430,223.787582 714.888733,221.695801 714.625427,217.262344 
	C714.022339,207.109818 712.864441,197.028290 711.232605,186.991867 
	C710.665894,183.506683 709.146179,180.739334 706.187744,178.750778 
	C705.147888,178.051819 703.312256,177.501678 703.959167,175.883743 
	C705.406738,172.262985 702.569885,171.488510 700.499512,170.428879 
	C694.561035,167.389557 688.948242,168.243988 683.681458,172.227844 
	C678.081909,176.463318 676.503052,182.523712 676.396240,189.008057 
	C676.195923,201.169403 676.325867,213.336166 676.312134,226.500702 
M336.254730,414.796906 
	C336.473206,410.808472 336.375031,406.770966 336.983307,402.842896 
	C337.931030,396.722809 335.849609,389.540100 342.791931,385.295502 
	C343.912933,384.610138 344.022583,382.906158 343.307648,381.618958 
	C342.502258,380.168915 341.075958,380.386627 339.752411,380.687653 
	C335.699036,381.609619 331.683197,382.722839 327.601410,383.487732 
	C319.839874,384.942169 316.189148,381.974365 317.025360,373.945709 
	C317.588806,368.536133 316.738464,363.354156 316.484528,358.071106 
	C316.436707,357.076813 316.286499,356.064423 316.413452,355.090363 
	C316.586395,353.763855 316.939178,352.369843 318.386841,351.853973 
	C319.970337,351.289764 320.862488,352.445526 321.650604,353.532928 
	C322.627502,354.880768 323.441254,356.350281 324.455750,357.666870 
	C329.015045,363.583862 334.828369,362.886902 338.138184,356.195465 
	C340.455048,351.511475 339.431244,346.828430 338.772919,342.042358 
	C337.812164,335.057648 335.317169,332.869507 328.287872,333.176544 
	C324.300079,333.350769 320.423065,334.645416 316.371521,334.191620 
	C309.904144,333.467285 306.432709,329.143829 308.637939,323.121674 
	C310.174530,318.925537 312.305969,314.954529 312.759613,310.191010 
	C314.866089,312.885193 318.538116,313.997986 318.110199,317.822937 
	C321.747955,317.822937 325.083313,317.684204 328.402557,317.856659 
	C332.955933,318.093170 334.228699,316.002747 333.598572,311.738190 
	C332.528320,304.494720 331.757660,297.207275 330.839294,289.941040 
	C330.499664,287.253937 331.479950,283.903137 327.948975,282.625275 
	C324.745331,281.465942 321.712097,282.053680 319.212982,284.560364 
	C317.262512,286.516815 315.488525,286.177368 313.597656,284.350861 
	C312.545715,283.334686 311.221222,282.572998 309.946930,281.819489 
	C305.110626,278.959686 303.331207,273.960327 306.000580,269.055023 
	C307.344330,266.585693 307.921814,264.207001 307.952667,261.496796 
	C307.970551,259.927734 307.638153,258.087799 309.472443,257.093445 
	C312.816986,259.100769 312.816956,259.100800 314.897858,262.602997 
	C316.875885,265.932037 321.734558,267.370880 326.223022,266.168671 
	C330.371490,265.057495 329.713409,261.787659 329.587891,258.885101 
	C329.336090,253.063385 329.056854,247.231323 328.446991,241.439529 
	C327.663147,233.995880 327.715851,225.969620 317.682770,222.873718 
	C316.737274,222.887787 315.921875,225.829041 313.546906,225.021561 
	C313.293182,216.679688 321.042328,223.088181 323.319061,219.609695 
	C319.833221,210.263870 312.530609,208.562027 305.582184,215.295959 
	C303.204926,217.599854 301.982605,220.443329 301.299622,223.591660 
	C299.279633,232.903275 299.227020,242.441574 298.603302,251.864441 
	C298.033539,260.471985 296.657349,269.117798 297.484863,277.781494 
	C298.371124,287.060120 298.848297,296.356445 299.432007,305.653503 
	C300.306091,319.574890 301.943817,333.446564 302.979706,347.360016 
	C303.966949,360.620453 305.719238,373.847931 304.813477,387.211151 
	C304.127075,397.337921 303.781921,407.487640 303.117554,417.616180 
	C302.875793,421.301849 304.235199,422.763367 307.937531,422.693329 
	C314.765686,422.564056 321.598999,422.734589 328.430115,422.725983 
	C335.477386,422.717072 335.477356,422.688782 336.254730,414.796906 
M457.869110,402.502289 
	C458.458252,384.544128 459.041168,366.585754 459.642059,348.627991 
	C459.755676,345.232880 459.681488,341.966614 455.385681,340.335114 
	C454.985382,343.630219 453.321930,345.793671 449.995819,345.940918 
	C443.187103,346.242340 436.383728,346.591827 429.572723,345.620056 
	C426.392212,345.166260 425.325806,343.536163 425.465485,340.577728 
	C425.603333,337.657593 425.661713,334.344635 429.429718,334.156067 
	C438.414764,333.706238 447.536194,332.140961 456.300446,336.071625 
	C458.985901,333.366119 457.619446,331.008575 455.691620,328.663177 
	C447.416656,318.595825 430.048615,317.828369 420.855499,327.255890 
	C418.268982,329.908356 416.426544,333.118500 416.394653,337.012512 
	C416.360657,341.166748 416.295837,345.327087 416.466644,349.475586 
	C417.589783,376.760742 416.928528,404.046417 416.559021,431.332031 
	C416.538483,432.850189 416.319702,434.361053 418.255585,435.338989 
	C418.687500,435.166962 419.381500,435.060242 419.851898,434.678192 
	C430.065308,426.383789 440.574310,427.116699 451.354828,433.491516 
	C456.743256,436.677856 457.889191,436.307220 458.143921,429.912506 
	C458.493896,421.126099 458.014832,412.306641 457.869110,402.502289 
M635.396790,417.224792 
	C632.402100,417.139404 629.389160,417.232361 626.417053,416.927002 
	C621.899536,416.462860 619.656677,413.851929 619.705750,409.217926 
	C619.752563,404.797180 621.953613,402.384888 626.240601,401.882294 
	C629.214661,401.533661 632.252380,400.971710 635.191589,401.248810 
	C640.429260,401.742615 646.578674,400.338196 649.239868,406.992096 
	C651.267212,406.021057 651.253845,404.298218 651.325439,402.943878 
	C652.292969,384.660736 653.279968,366.376495 653.946838,348.081024 
	C654.119141,343.353516 652.366150,342.501221 648.081238,344.363068 
	C646.656494,344.982147 645.249207,345.279236 643.737183,345.283264 
	C637.239441,345.300690 630.740356,345.244781 624.244446,345.362549 
	C620.608704,345.428467 618.626038,344.208038 618.617920,340.211548 
	C618.609680,336.147583 620.355408,334.523376 624.366760,334.603699 
	C631.361389,334.743774 638.361084,334.612274 645.358398,334.647644 
	C647.626099,334.659119 649.944824,334.508301 650.860901,332.136444 
	C651.731201,329.883148 649.759094,328.456024 648.427368,327.053314 
	C642.200378,320.494293 634.188721,320.696686 626.088562,321.295593 
	C617.591980,321.923828 608.050903,328.470032 609.179565,340.193054 
	C610.517822,354.094208 611.682556,368.043823 612.074951,381.996246 
	C612.561829,399.309021 612.175598,416.646271 612.182312,433.972931 
	C612.182922,435.407532 611.660217,437.005859 613.159973,438.061615 
	C614.581787,438.249298 615.352722,437.270386 616.132080,436.452698 
	C623.358337,428.871246 632.016418,428.428650 641.495300,430.980164 
	C644.568054,431.807251 647.480408,435.845154 650.517212,433.384857 
	C653.342590,431.095795 651.843567,426.773804 651.806580,423.374725 
	C651.771179,420.121582 653.071228,416.462860 650.019226,413.320709 
	C645.981506,416.908997 641.123474,416.917694 635.396790,417.224792 
M358.584137,359.993866 
	C359.106323,368.287140 359.917511,376.574524 360.087036,384.875000 
	C360.386292,399.524323 360.189240,414.183411 360.429810,428.834625 
	C360.502686,433.275116 360.625092,437.871582 362.943909,442.272003 
	C371.786560,432.966675 375.753571,429.976990 382.644867,429.877899 
	C387.132721,429.813416 390.045471,426.631317 394.103210,425.820648 
	C396.383362,425.365082 396.191376,422.622711 394.025024,421.178162 
	C391.393555,419.423401 388.681061,418.010498 385.239410,418.206207 
	C381.444611,418.422028 377.615723,418.571106 373.822296,417.556976 
	C370.723877,416.728668 369.464172,414.831757 369.344788,411.815765 
	C369.110840,405.906616 370.872864,404.457336 379.175964,403.824036 
	C386.100983,403.295837 386.660156,402.729034 386.712250,395.693787 
	C386.772644,387.534851 386.706360,379.374451 386.837982,371.216980 
	C386.867523,369.385803 386.307831,367.133026 388.790466,365.885803 
	C389.321686,366.225128 389.904602,366.517059 390.391815,366.923676 
	C391.859741,368.148804 392.972687,370.302460 395.423035,368.959869 
	C397.642700,367.743713 399.646240,366.403412 399.888458,363.434998 
	C400.471283,356.292297 401.018494,349.131042 400.475830,341.989349 
	C399.638824,330.973480 389.782959,320.611694 380.749542,321.643646 
	C369.277618,322.954102 358.214386,328.460297 358.316376,343.580292 
	C358.351166,348.741669 358.402435,353.902893 358.584137,359.993866 
M678.587891,397.017395 
	C681.864075,395.390411 685.101501,393.678345 688.427490,392.160583 
	C691.694214,390.669861 695.092896,389.245575 697.559265,393.479950 
	C700.198608,398.011444 699.230652,402.375305 694.957764,405.146484 
	C690.630981,407.952667 686.142517,410.524963 681.937927,413.500763 
	C674.013611,419.109314 667.750122,425.720947 670.184998,436.929626 
	C670.443665,436.929626 671.183655,437.154816 671.662659,436.896301 
	C680.474243,432.142029 689.266357,427.351501 698.035950,422.520233 
	C702.060608,420.302979 704.472351,416.820801 705.509949,412.385803 
	C708.650269,398.962708 711.940002,385.571106 714.827148,372.093445 
	C716.592163,363.853943 711.865112,359.104858 703.506958,360.040253 
	C695.748657,360.908508 688.004028,362.135895 680.301941,359.371216 
	C678.500488,358.724579 676.343994,358.768066 674.387146,358.930695 
	C672.070374,359.123199 669.644104,360.372498 670.422913,362.973846 
	C671.931396,368.012299 669.588440,372.539520 669.359741,377.313141 
	C669.144897,381.797516 668.847534,386.278320 668.669006,390.764008 
	C668.546997,393.829102 666.910583,397.584381 669.840515,399.673370 
	C672.734375,401.736664 675.247437,398.325745 678.587891,397.017395 
M558.166321,419.491028 
	C558.401428,424.307617 557.662537,429.219757 559.180603,435.292786 
	C569.072266,422.799469 579.830872,415.534515 595.040771,422.277710 
	C598.533997,416.271118 596.364624,411.839264 589.745972,411.448151 
	C585.098755,411.173523 580.422852,411.425507 575.762268,411.324677 
	C570.892456,411.219330 569.180420,407.964355 568.819153,403.762238 
	C568.453979,399.514587 570.734924,397.350800 574.832947,396.676331 
	C579.618469,395.888733 584.422852,395.570068 589.258606,395.688873 
	C593.830017,395.801117 596.084412,393.800537 595.787231,389.063110 
	C595.349792,382.090607 595.133118,375.103516 594.637085,368.135834 
	C594.413147,364.989502 596.212646,360.802856 592.390808,359.095093 
	C588.670593,357.432709 586.311035,361.256866 584.085999,363.328857 
	C576.867371,370.051117 568.299316,375.234100 563.733582,384.890320 
	C558.584778,395.779541 558.172668,406.995972 558.166321,419.491028 
M474.343018,418.662445 
	C476.131744,422.848389 479.185699,423.523132 482.024536,420.080719 
	C484.764832,416.757904 487.083405,413.240234 487.831299,408.697510 
	C489.829742,396.559662 491.804443,384.404205 495.033295,372.503876 
	C496.855011,365.789581 495.412048,363.852448 488.327606,363.212189 
	C486.672211,363.062561 485.033966,362.730438 483.384491,362.506927 
	C476.506409,361.574890 475.571716,362.475769 475.187225,369.349762 
	C474.283844,385.499329 474.412933,401.663116 474.343018,418.662445 
M615.598267,458.105591 
	C617.784790,462.390381 621.501465,464.939209 625.929871,466.075806 
	C629.310059,466.943298 633.317627,468.297607 636.015869,464.632172 
	C638.221497,461.635834 640.941040,459.261047 643.722473,456.915588 
	C645.112183,455.743744 645.948059,454.788269 645.119324,452.745453 
	C641.579651,444.020630 631.785339,440.780579 624.182007,446.235077 
	C620.269775,449.041565 617.050903,452.655151 615.598267,458.105591 
M388.428619,463.225220 
	C392.857666,465.096863 395.642029,462.975403 397.715637,459.319977 
	C399.257660,456.601654 398.174896,454.154541 396.572968,451.927643 
	C395.707123,450.723969 394.527679,449.509430 392.846222,449.909637 
	C390.055603,450.573822 389.881958,453.142487 389.200317,455.340485 
	C388.859619,456.439178 389.465149,458.138947 387.226379,458.471832 
	C386.754089,454.130463 385.968689,449.897736 390.054688,446.403931 
	C388.816498,445.699097 388.029480,445.053223 387.128479,444.770172 
	C381.110199,442.879730 371.981842,449.036804 370.061310,456.223541 
	C369.087677,459.866943 373.844696,464.364899 380.212677,465.809052 
	C381.345093,466.065857 382.484222,466.295868 383.625397,466.510681 
	C386.004547,466.958527 387.444519,465.956268 388.428619,463.225220 
M590.492310,449.895294 
	C595.837280,447.478851 596.993469,445.143829 594.692017,441.413544 
	C589.041138,432.254364 578.498657,432.204376 572.983215,441.310638 
	C569.435242,447.168427 570.980408,450.791962 577.543152,452.874054 
	C582.274292,454.375061 586.313416,453.813751 590.492310,449.895294 
M426.012299,463.683807 
	C427.047546,464.198395 428.038269,464.848694 429.125336,465.205170 
	C435.286774,467.225586 436.801788,466.026215 436.782074,459.573364 
	C436.769501,455.467834 436.314667,451.334320 438.021271,447.328583 
	C439.187195,444.592010 436.979706,443.436035 434.933624,443.629486 
	C427.901276,444.294281 424.711639,449.830719 421.688110,455.158234 
	C419.401581,459.187225 423.413940,460.891998 426.012299,463.683807 
M360.020844,571.607666 
	C361.472260,569.191162 360.848999,567.431702 358.371338,566.184570 
	C355.623260,564.801270 353.494324,565.261475 351.662323,568.214783 
	C354.327454,569.783508 356.758606,571.008606 360.020844,571.607666 
M445.812805,457.847534 
	C445.508514,459.870514 446.474121,460.674988 448.331818,460.140472 
	C449.358002,459.845245 449.870972,458.704620 449.503601,457.729919 
	C448.726898,455.669159 447.415558,456.101288 445.812805,457.847534 
z"/>
<path fill="#000000" opacity="1.000000" stroke="none" 
	d="
M543.449829,857.456909 
	C535.126038,867.125244 535.005920,867.246948 526.276733,858.631470 
	C519.053772,851.502502 511.098480,845.056824 504.961029,836.889343 
	C500.487091,830.935547 497.170807,824.497192 498.408386,816.610596 
	C499.662628,808.617493 504.871704,803.582275 511.914612,801.354553 
	C518.760376,799.189209 525.818909,800.122681 531.215515,806.007446 
	C531.979675,806.840698 532.910645,807.520874 534.264343,808.711670 
	C538.343933,803.179321 543.622986,800.442566 550.492676,800.625854 
	C565.310120,801.021057 574.593384,815.257202 568.660645,828.849182 
	C566.701904,833.336853 563.706909,837.129456 560.296143,840.584778 
	C554.795837,846.157043 549.231079,851.665710 543.449829,857.456909 
z"/>
<path fill="#000000" opacity="1.000000" stroke="none" 
	d="
M504.432861,750.487793 
	C502.650177,747.250793 501.029083,744.339172 499.510315,741.375061 
	C498.009094,738.445312 496.611298,735.462524 494.835175,731.820068 
	C488.029755,744.020752 481.596741,755.553833 474.858459,767.634094 
	C463.046356,745.865845 455.871887,722.703125 447.822266,699.707703 
	C452.454803,697.563110 456.613892,697.785095 460.743134,697.693909 
	C463.948090,697.623169 464.398712,700.119934 465.149414,702.265137 
	C468.773346,712.620728 472.651123,722.891357 475.550385,734.257690 
	C477.983032,731.401733 478.486511,728.434631 479.648010,725.806274 
	C483.417877,717.275269 487.169220,708.735840 490.998199,700.231323 
	C491.658936,698.763794 492.223602,696.901733 494.209045,696.747925 
	C496.608063,696.562134 497.028595,698.761292 497.831299,700.309387 
	C503.258667,710.776672 508.541992,721.314819 512.998108,733.568359 
	C516.481567,723.469055 519.762390,714.648804 522.552917,705.676147 
	C525.441528,696.387939 524.333069,697.829102 533.331116,697.718018 
	C535.775574,697.687744 538.320007,697.149231 541.198608,698.635803 
	C534.437744,722.230957 524.373779,744.601746 515.799377,767.526672 
	C515.288086,767.598145 514.776855,767.669678 514.265564,767.741150 
	C511.056793,762.090881 507.848022,756.440552 504.432861,750.487793 
z"/>
<path fill="#000000" opacity="1.000000" stroke="none" 
	d="
M754.470337,763.792847 
	C752.840271,762.674377 752.720154,761.345642 752.695435,759.994690 
	C752.400330,743.839478 752.928650,727.732788 755.069031,711.688049 
	C755.764465,706.474976 755.857910,701.181580 756.854858,695.554199 
	C766.454346,708.395203 777.888000,719.616882 787.225708,733.874146 
	C797.284302,720.973389 805.633118,707.091492 818.163940,697.163879 
	C819.988037,697.618469 820.196716,698.831665 820.224670,699.978821 
	C820.698669,719.437622 824.380310,738.653687 824.532410,758.154114 
	C824.570068,762.993225 823.344727,764.588989 818.464661,764.436768 
	C809.442688,764.155212 809.731445,764.361877 808.476990,755.152100 
	C807.604126,748.743530 808.386841,742.181519 806.407471,735.144104 
	C799.873047,744.702820 793.656921,753.795837 787.088806,763.403870 
	C781.442932,754.406799 776.403320,745.880737 769.517578,737.915649 
	C767.835388,741.021851 768.387329,743.872925 768.184143,746.566040 
	C767.946289,749.718750 768.011414,752.899109 767.676270,756.038757 
	C766.765991,764.567505 766.709473,764.569153 757.854919,764.315247 
	C756.862244,764.286804 755.873718,764.113159 754.470337,763.792847 
z"/>
<path fill="#000000" opacity="1.000000" stroke="none" 
	d="
M323.137695,717.627319 
	C317.271362,712.024353 311.000610,709.530884 303.383362,713.002258 
	C295.361938,716.657715 290.936127,723.761841 291.280823,732.458740 
	C291.568787,739.725281 296.304871,745.040161 304.470551,748.275635 
	C309.992432,750.463501 314.866974,749.693298 319.609009,746.613281 
	C321.275269,745.531067 322.105652,743.875732 321.495819,741.859314 
	C320.936646,740.010437 319.273438,740.170654 317.777466,740.073608 
	C306.888489,739.366821 306.884766,739.362610 306.966431,728.629700 
	C306.973816,727.655823 307.075378,726.682617 307.173920,725.023438 
	C316.386627,726.426819 325.486481,724.729858 334.492798,726.627686 
	C336.911896,727.137390 337.270416,728.623901 337.270752,730.600647 
	C337.271667,736.266174 337.280121,741.931763 337.290436,747.597290 
	C337.295654,750.468811 335.812439,752.658752 334.011200,754.680359 
	C324.572723,765.273926 310.756561,767.929016 298.895233,763.896301 
	C284.934021,759.149658 276.173950,746.222290 275.548187,732.639648 
	C274.839447,717.254761 281.692688,706.559814 294.942535,700.045654 
	C308.872589,693.197021 321.828918,696.744019 333.739838,705.673828 
	C334.131256,705.967285 334.459503,706.370728 334.741089,706.775818 
	C334.919678,707.032715 334.957275,707.387634 335.197418,708.128357 
	C331.994263,710.703613 329.164124,713.863403 327.212433,717.752441 
	C326.139221,719.890930 324.709290,719.573914 323.137695,717.627319 
z"/>
<path fill="#000000" opacity="1.000000" stroke="none" 
	d="
M411.334656,732.000244 
	C411.321655,741.494690 411.339996,750.489319 411.273346,759.483337 
	C411.257782,761.582153 412.054840,764.309509 409.851074,765.466370 
	C407.220215,766.847351 405.731781,764.018005 404.064117,762.648132 
	C395.423157,755.549866 387.734314,747.453857 380.081512,739.329407 
	C377.012054,736.070740 373.942413,732.816956 369.387177,729.457886 
	C369.387177,738.761719 369.498901,747.283447 369.321777,755.799255 
	C369.265747,758.492920 370.755371,762.384888 367.946106,763.648254 
	C364.228241,765.320312 359.766083,764.744019 355.662750,763.975769 
	C353.913544,763.648254 353.691010,761.842102 353.725677,760.314758 
	C354.194061,739.679688 352.683228,719.012268 354.733734,698.404846 
	C354.794403,697.794983 355.116547,697.211243 355.677673,695.541199 
	C370.243530,706.863770 382.884674,719.452881 396.948364,732.898743 
	C395.428772,722.981873 395.881897,714.292908 395.880127,705.604431 
	C395.879639,703.095703 394.351624,699.461731 397.246704,698.343140 
	C401.064148,696.868042 405.470428,697.288025 409.540344,698.199890 
	C411.272339,698.587952 411.095215,700.647461 410.952026,702.083740 
	C409.972504,711.908325 411.924316,721.687500 411.334656,732.000244 
z"/>
<path fill="#000000" opacity="1.000000" stroke="none" 
	d="
M649.787720,708.046021 
	C649.825684,697.018005 649.819153,697.100586 661.014465,697.982239 
	C664.102722,698.225464 665.467529,699.271606 665.349487,702.534119 
	C665.150818,708.022461 665.394775,713.525818 665.248718,719.017395 
	C665.158020,722.430664 666.506897,723.874451 669.955872,723.744995 
	C674.446411,723.576294 678.954590,723.501587 683.440735,723.704773 
	C687.257202,723.877563 688.939209,722.540710 688.774353,718.560059 
	C688.553955,713.240112 688.838257,707.900146 688.652344,702.577637 
	C688.538086,699.306580 689.919739,698.176636 693.041077,698.104553 
	C707.570007,697.769104 705.010010,696.167664 705.134338,709.416565 
	C705.287476,725.734497 705.102173,742.056885 705.389709,758.371582 
	C705.471619,763.019226 703.901672,764.437195 699.379822,764.403931 
	C689.004333,764.327515 689.001099,764.515930 688.904602,754.144043 
	C688.869019,750.314148 688.787659,746.483398 688.833008,742.654358 
	C688.867004,739.786133 687.688354,738.294250 684.701294,738.333191 
	C680.039307,738.394043 675.376038,738.409973 670.713867,738.373718 
	C667.344788,738.347534 665.889832,740.004822 665.935730,743.297363 
	C666.007751,748.458130 665.951416,753.620605 666.027893,758.781250 
	C666.084473,762.601868 664.730103,764.410950 660.473511,764.419861 
	C649.837280,764.442139 649.781982,764.632751 649.755615,753.999390 
	C649.718018,738.845520 649.772034,723.691406 649.787720,708.046021 
z"/>
<path fill="#000000" opacity="1.000000" stroke="none" 
	d="
M225.717072,756.582947 
	C217.640625,766.204773 207.365784,767.355286 196.396957,764.946167 
	C189.553299,763.442993 183.314011,760.215637 177.070862,755.541016 
	C180.372269,750.809265 183.537979,746.271973 186.992844,741.320251 
	C191.056122,745.584167 195.677948,747.999268 200.690689,749.800354 
	C202.636673,750.499512 204.593140,750.939575 206.554977,750.533752 
	C209.505493,749.923401 212.993347,749.099915 213.402878,745.682922 
	C213.867371,741.807434 210.073135,741.837158 207.463196,741.099487 
	C201.077698,739.294922 194.438705,738.253662 188.741806,734.464905 
	C175.974518,725.974121 175.593414,709.755249 188.063110,701.750671 
	C193.062332,698.541687 198.589111,696.739075 204.558838,696.709961 
	C213.865326,696.664490 221.459656,700.789062 229.154236,707.115540 
	C224.345200,709.795959 222.670364,714.361084 220.268982,718.838501 
	C217.108459,717.042603 214.319443,715.362488 211.443283,713.847717 
	C207.898041,711.980713 204.144226,711.532654 200.330978,712.920105 
	C198.315063,713.653748 195.854187,714.416565 195.740250,716.937256 
	C195.625977,719.465637 197.928650,720.589844 199.977417,721.252136 
	C203.131393,722.271667 206.413925,722.885559 209.616806,723.763245 
	C218.955505,726.322144 227.198425,730.145691 229.754364,740.802490 
	C231.165070,746.684204 228.955597,751.559937 225.717072,756.582947 
z"/>
<path fill="#000000" opacity="1.000000" stroke="none" 
	d="
M843.008057,756.668335 
	C842.880676,738.554016 842.867493,720.904480 842.588684,703.259094 
	C842.525085,699.233521 843.595276,697.914490 847.864441,697.788269 
	C859.991943,697.429749 872.113159,699.675415 884.231140,697.752625 
	C887.220215,697.278320 888.226746,698.784241 888.371338,701.760620 
	C888.942139,713.510986 889.032288,713.481323 877.653076,713.348450 
	C872.325439,713.286255 866.992798,713.463745 861.669250,713.304626 
	C857.930786,713.192932 857.094299,715.150818 857.380981,718.321350 
	C857.644348,721.235168 856.980347,724.665039 861.675415,724.615051 
	C867.002808,724.558350 872.335327,724.770508 877.658569,724.618042 
	C881.031616,724.521423 882.724304,725.664612 882.325928,729.206909 
	C882.233398,730.030579 882.316040,730.872559 882.257690,731.701843 
	C881.729126,739.215088 881.592163,739.336487 873.973511,739.304993 
	C870.143799,739.289124 866.312195,739.342834 862.484985,739.237549 
	C859.695129,739.160767 858.056091,739.902649 858.245728,743.164612 
	C858.412415,746.029785 858.495972,748.628235 862.333801,748.628052 
	C869.660278,748.627625 876.995667,748.871155 884.309875,748.577637 
	C888.861694,748.394836 890.438721,750.351501 889.869568,754.476562 
	C888.384399,765.239868 891.778015,764.246216 879.545471,764.299316 
	C870.054382,764.340515 860.562927,764.347107 851.071777,764.322571 
	C842.796936,764.301208 844.173523,764.677002 843.008057,756.668335 
z"/>
<path fill="#000000" opacity="1.000000" stroke="none" 
	d="
M403.999420,832.316528 
	C386.209808,832.610352 368.899536,831.517517 351.626770,833.143188 
	C349.328308,833.359558 346.937408,833.321472 344.666595,832.940552 
	C340.773193,832.287354 336.924866,828.016479 337.262085,824.607971 
	C337.654358,820.642883 340.393677,818.457825 344.085815,817.635315 
	C346.498199,817.097839 349.012848,816.780518 351.482605,816.775269 
	C387.593170,816.698669 423.703918,816.690063 459.814606,816.670898 
	C461.639648,816.669983 463.520111,816.512817 465.115143,817.663147 
	C467.869720,819.649780 470.575439,821.850037 469.924500,825.701050 
	C469.330536,829.215149 463.680695,832.764771 459.401642,832.730103 
	C442.598663,832.593994 425.795654,832.462952 408.992645,832.331787 
	C407.494965,832.320129 405.997192,832.321594 403.999420,832.316528 
z"/>
<path fill="#000000" opacity="1.000000" stroke="none" 
	d="
M699.999756,832.345215 
	C678.035461,832.344055 656.570801,832.275269 635.106934,832.372803 
	C626.961121,832.409851 618.816589,832.816772 610.672485,833.085327 
	C608.833923,833.145996 607.047363,833.138245 605.268738,832.484192 
	C600.843262,830.856750 597.800354,826.516846 598.797974,822.497864 
	C599.964783,817.797668 603.617554,816.647888 607.999451,816.662659 
	C636.118896,816.757141 664.238464,816.814880 692.358032,816.858521 
	C699.512146,816.869568 706.666382,816.787048 713.820557,816.744934 
	C715.151611,816.737061 716.484253,816.665466 717.813171,816.710815 
	C723.543457,816.906250 727.221863,819.837463 727.285278,824.218201 
	C727.339661,827.975403 722.795349,832.114197 717.968994,832.279846 
	C712.151978,832.479553 706.323303,832.337769 699.999756,832.345215 
z"/>
<path fill="#000000" opacity="1.000000" stroke="none" 
	d="
M618.167603,738.009033 
	C618.200684,745.159363 618.140076,751.813660 618.285583,758.463379 
	C618.374084,762.506409 617.144104,764.477966 612.579041,764.433716 
	C601.886414,764.329956 602.160522,764.542725 602.483704,753.668762 
	C602.824341,742.203857 602.556152,730.721008 602.573792,719.246033 
	C602.580383,714.974060 600.897400,712.629883 596.229858,713.285889 
	C594.761780,713.492310 593.240662,713.320129 591.743835,713.323669 
	C584.159180,713.341492 584.127625,713.309753 584.046509,705.499573 
	C583.965210,697.669861 583.965149,697.677856 592.003601,697.681152 
	C604.476990,697.686279 616.952881,697.818665 629.422546,697.602173 
	C633.808044,697.526001 635.671143,698.638977 635.454956,703.447327 
	C634.968445,714.271301 636.643188,713.289185 625.450378,713.355164 
	C616.975769,713.405090 616.922729,713.441040 617.405457,722.077881 
	C617.692871,727.220337 617.911316,732.366577 618.167603,738.009033 
z"/>
<path fill="#000000" opacity="1.000000" stroke="none" 
	d="
M553.648071,749.992249 
	C553.630798,734.039734 553.729248,718.583801 553.518555,703.132019 
	C553.462769,699.038086 554.736267,697.546387 558.890381,697.650452 
	C569.915222,697.926758 569.089478,696.194946 569.251038,707.700439 
	C569.481995,724.144897 569.764832,740.589050 569.895996,757.034302 
	C569.915894,759.523254 570.718994,763.195007 567.570618,763.905823 
	C563.461365,764.833557 558.983337,765.165161 554.838379,763.561707 
	C553.509583,763.047729 553.696838,761.282104 553.681091,759.962219 
	C553.643433,756.805237 553.655884,753.647705 553.648071,749.992249 
z"/>
<path fill="#000000" opacity="1.000000" stroke="none" 
	d="
M243.713867,706.061951 
	C244.105957,703.074280 242.332306,699.286865 245.189560,698.343933 
	C249.372787,696.963196 254.094879,697.303406 258.415009,698.711060 
	C259.866974,699.184204 260.029297,701.239929 259.950562,702.690918 
	C258.932373,721.461365 261.196503,740.246765 259.605530,759.026794 
	C259.265198,763.044067 258.034729,764.513672 253.945648,764.413269 
	C243.475571,764.156128 244.822006,765.126953 244.666946,755.433289 
	C244.406296,739.138672 244.038147,722.845764 243.713867,706.061951 
z"/>
<path fill="#000000" opacity="1.000000" stroke="none" 
	d="
M348.291504,616.215759 
	C347.689453,609.953918 350.229736,605.169983 354.973206,603.382751 
	C359.516266,601.671143 363.029755,603.643433 365.998077,606.940613 
	C369.991730,611.376709 370.211212,615.136658 366.824615,619.381104 
	C363.192566,623.933289 358.655823,624.770020 353.592865,621.830017 
	C351.392456,620.552246 349.618103,618.864014 348.291504,616.215759 
z"/>
<path fill="#000000" opacity="1.000000" stroke="none" 
	d="
M592.049438,607.054810 
	C596.620728,613.659119 596.252075,617.343750 590.883972,621.447144 
	C586.472046,624.819580 580.879150,623.934570 576.752380,619.211121 
	C573.345459,615.311462 574.239319,608.924866 578.817139,604.459595 
	C582.331604,601.031555 586.233704,601.724792 592.049438,607.054810 
z"/>
<path fill="#000000" opacity="1.000000" stroke="none" 
	d="
M687.037354,621.021118 
	C688.739990,624.503723 688.852783,627.749817 687.978577,631.074341 
	C687.463501,633.032837 686.913818,635.060669 684.604126,635.574890 
	C682.291321,636.089722 680.611328,634.546997 679.648926,632.910645 
	C677.391602,629.072510 675.453979,625.035706 673.566528,620.995422 
	C672.659363,619.053528 672.149902,616.924561 671.477234,614.874756 
	C670.796448,612.799927 669.946716,610.642151 672.292786,609.044250 
	C674.449463,607.575378 676.717285,607.864990 678.890198,609.056458 
	C683.490295,611.578979 685.163696,616.147644 687.037354,621.021118 
z"/>
<path fill="#000000" opacity="1.000000" stroke="none" 
	d="
M497.987244,180.983307 
	C497.114594,184.468628 496.252655,187.965515 495.390717,191.462418 
	C493.508087,187.474625 494.913269,184.299698 497.732666,181.205658 
	C498.023102,181.012894 497.997925,180.994873 497.987244,180.983307 
z"/>
<path fill="#000000" opacity="1.000000" stroke="none" 
	d="
M433.415985,417.116699 
	C426.118896,415.711334 425.108673,414.289764 425.650543,407.777313 
	C425.884735,404.962433 427.334503,403.301086 429.838898,402.982574 
	C436.083862,402.188385 442.309113,401.177063 448.685974,402.429871 
	C452.510956,403.181305 454.443481,405.104126 454.067444,408.819519 
	C453.675018,412.696350 452.813416,416.775116 447.836578,417.101105 
	C443.200439,417.404785 438.527527,417.146332 433.415985,417.116699 
z"/>
<path fill="#000000" opacity="1.000000" stroke="none" 
	d="
M394.619415,338.700684 
	C394.087250,347.244598 393.471130,347.749695 385.356964,347.079224 
	C381.723907,346.778992 378.081177,346.577515 374.439270,346.409088 
	C371.642548,346.279724 368.923615,346.047577 368.734406,342.389160 
	C368.567719,339.167267 369.440887,336.131531 372.917297,335.348694 
	C379.441986,333.879456 386.115021,334.699341 392.723450,334.857788 
	C394.719086,334.905670 394.666504,336.762726 394.619415,338.700684 
z"/>
</svg>